<svg width="10" height="10" viewBox="0 0 10 10" fill="none" xmlns="http://www.w3.org/2000/svg">
<g clip-path="url(#clip0_14_351)">
<path d="M9.44477 6.86415C9.40774 6.80427 9.35614 6.75475 9.29479 6.72022C9.23344 6.68568 9.16434 6.66725 9.09394 6.66665C7.7832 6.64098 6.53453 6.10348 5.61495 5.1691C4.69536 4.23472 4.17786 2.97764 4.17311 1.66665C4.17309 1.32482 4.20799 0.983888 4.27727 0.649153C4.29167 0.579864 4.28819 0.508048 4.26714 0.440478C4.2461 0.372909 4.20819 0.311813 4.157 0.262951C4.1058 0.21409 4.043 0.179074 3.97453 0.161205C3.90605 0.143336 3.83415 0.143204 3.76561 0.16082C2.95519 0.367287 2.2095 0.773735 1.5968 1.34296C0.984109 1.91218 0.523981 2.626 0.258539 3.41906C-0.00690381 4.21213 -0.0691803 5.0591 0.0774098 5.88246C0.224 6.70582 0.574774 7.47926 1.09762 8.13198C1.62047 8.7847 2.29869 9.29584 3.07019 9.61863C3.8417 9.94141 4.68185 10.0655 5.51373 9.97959C6.34561 9.89366 7.14265 9.60045 7.83189 9.12678C8.52113 8.65311 9.08055 8.01413 9.45894 7.26832C9.49109 7.20529 9.50666 7.13511 9.50418 7.0644C9.5017 6.99369 9.48126 6.92478 9.44477 6.86415Z" fill="#F0B2BC"/>
</g>
<defs>
<clipPath id="clip0_14_351">
<rect width="10" height="10" fill="white"/>
</clipPath>
</defs>
</svg>
