<svg width="8" height="9" viewBox="0 0 8 9" fill="none" xmlns="http://www.w3.org/2000/svg">
<path d="M7.14706 4.77192C7.17606 4.60163 7.19125 4.42927 7.19246 4.25653C7.19125 4.08379 7.17606 3.91143 7.14706 3.74113L7.89195 3.02143C7.94875 2.96646 7.98557 2.8941 7.99655 2.81583C8.00754 2.73756 7.99208 2.65787 7.95261 2.58939L7.42054 1.66714C7.38053 1.59892 7.31904 1.54587 7.24569 1.51628C7.17234 1.4867 7.09126 1.48225 7.01511 1.50362L6.02192 1.78739C5.75301 1.56836 5.45028 1.39453 5.12556 1.2727L4.8762 0.268871C4.85705 0.1921 4.81279 0.123935 4.75044 0.0752162C4.6881 0.0264974 4.61125 2.18583e-05 4.53213 0H3.468C3.38888 2.18583e-05 3.31203 0.0264974 3.24969 0.0752162C3.18734 0.123935 3.14308 0.1921 3.12393 0.268871L2.87315 1.2727C2.54894 1.39467 2.24669 1.5685 1.97821 1.78739L0.985025 1.50362C0.908874 1.48231 0.827812 1.48679 0.754475 1.51637C0.681139 1.54595 0.619649 1.59896 0.579591 1.66714L0.0475247 2.58939C0.00796675 2.6579 -0.00755057 2.73768 0.0034399 2.81602C0.0144304 2.89437 0.0512977 2.96679 0.10818 3.02178L0.853073 3.74149C0.824089 3.91166 0.808905 4.08391 0.80767 4.25653C0.808886 4.42927 0.82407 4.60163 0.853073 4.77192L0.10818 5.49163C0.0513809 5.54659 0.0145655 5.61895 0.00357679 5.69722C-0.00741191 5.77549 0.00805566 5.85519 0.0475247 5.92367L0.579591 6.84592C0.610752 6.89989 0.655585 6.9447 0.709573 6.97584C0.763562 7.00697 0.824802 7.02333 0.887125 7.02327C0.920094 7.02312 0.952897 7.01859 0.98467 7.00979L1.97786 6.72602C2.24676 6.94505 2.5495 7.11888 2.87421 7.24071L3.12499 8.24454C3.14417 8.32107 3.1883 8.38902 3.25042 8.43765C3.31255 8.48628 3.38911 8.51282 3.468 8.51306H4.53213C4.61125 8.51303 4.6881 8.48656 4.75044 8.43784C4.81279 8.38912 4.85705 8.32096 4.8762 8.24419L5.12698 7.24035C5.4512 7.11839 5.75344 6.94456 6.02192 6.72567L7.01511 7.00944C7.04688 7.01824 7.07968 7.02277 7.11265 7.02292C7.17497 7.02298 7.23621 7.00662 7.2902 6.97548C7.34419 6.94435 7.38902 6.89953 7.42019 6.84556L7.95225 5.92331C7.99181 5.8548 8.00733 5.77503 7.99634 5.69668C7.98535 5.61833 7.94848 5.54591 7.8916 5.49092L7.14706 4.77192ZM4.00007 5.67537C3.71944 5.67537 3.44513 5.59216 3.2118 5.43625C2.97847 5.28035 2.79661 5.05876 2.68923 4.7995C2.58184 4.54024 2.55374 4.25495 2.60849 3.97973C2.66323 3.7045 2.79836 3.45168 2.99679 3.25325C3.19522 3.05483 3.44803 2.91969 3.72326 2.86495C3.99849 2.8102 4.28377 2.8383 4.54303 2.94569C4.80229 3.05308 5.02389 3.23493 5.17979 3.46826C5.33569 3.70159 5.41891 3.97591 5.41891 4.25653C5.41891 4.63283 5.26942 4.99372 5.00334 5.2598C4.73725 5.52589 4.37637 5.67537 4.00007 5.67537Z" fill="#F0B2BC"/>
</svg>
