<svg width="8" height="8" viewBox="0 0 8 8" fill="none" xmlns="http://www.w3.org/2000/svg">
<path fill-rule="evenodd" clip-rule="evenodd" d="M3.53352 7.92607e-10C2.96525 1.4301e-05 2.40536 0.137083 1.90135 0.399581C1.39734 0.662079 0.964073 1.04226 0.638298 1.50788C0.312523 1.9735 0.103851 2.51083 0.0299821 3.07428C-0.0438872 3.63773 0.0192252 4.21068 0.213966 4.74454C0.408707 5.2784 0.729332 5.75742 1.14865 6.14097C1.56796 6.52452 2.07359 6.80128 2.62265 6.94778C3.17172 7.09428 3.74801 7.10619 4.30266 6.98251C4.85731 6.85883 5.37395 6.60321 5.80876 6.23732L7.57193 8.00009L8 7.57202L6.23723 5.80885C6.67062 5.29386 6.94791 4.66581 7.03648 3.99859C7.12505 3.33136 7.02121 2.65272 6.73719 2.0425C6.45316 1.43229 6.00077 0.915883 5.43322 0.554044C4.86568 0.192205 4.2066 -1.42524e-05 3.53352 7.92607e-10V7.92607e-10ZM0.605673 3.53361C0.605673 2.75709 0.914142 2.01239 1.46322 1.46331C2.0123 0.91423 2.75701 0.605761 3.53352 0.605761C4.31003 0.605761 5.05474 0.91423 5.60382 1.46331C6.1529 2.01239 6.46137 2.75709 6.46137 3.53361C6.46137 4.31012 6.1529 5.05483 5.60382 5.60391C5.05474 6.15299 4.31003 6.46145 3.53352 6.46145C2.75701 6.46145 2.0123 6.15299 1.46322 5.60391C0.914142 5.05483 0.605673 4.31012 0.605673 3.53361V3.53361Z" fill="#F0B2BC"/>
</svg>
