<svg width="10" height="10" viewBox="0 0 10 10" fill="none" xmlns="http://www.w3.org/2000/svg">
<path d="M4.375 0H5.625V1.25H4.375V0Z" fill="#48436E"/>
<path d="M8.05 1.02249L8.93313 1.90687L8.04938 2.79062L7.16563 1.90624L8.05 1.02249Z" fill="#48436E"/>
<path d="M8.75 4.375H10V5.625H8.75V4.375Z" fill="#48436E"/>
<path d="M8.09375 9.02L7.20937 8.13688L8.0925 7.2525L8.97687 8.13625L8.09375 9.02Z" fill="#48436E"/>
<path d="M4.375 8.75H5.625V10H4.375V8.75Z" fill="#48436E"/>
<path d="M1.8625 8.97624L0.978752 8.09249L1.86313 7.20874L2.74625 8.09312L1.8625 8.97624Z" fill="#48436E"/>
<path d="M0 4.375H1.25V5.625H0V4.375Z" fill="#48436E"/>
<path d="M1.90625 1.06625L2.79 1.95L1.90687 2.83438L1.0225 1.95L1.90625 1.06625Z" fill="#48436E"/>
<path d="M5 2.5C3.625 2.5 2.5 3.625 2.5 5C2.5 6.375 3.625 7.5 5 7.5C6.375 7.5 7.5 6.375 7.5 5C7.5 3.625 6.375 2.5 5 2.5Z" fill="#48436E"/>
</svg>
